<svg id="Layer_1" data-name="Layer 1" xmlns="http://www.w3.org/2000/svg" viewBox="0 0 515.01 536.47"><defs><style>.cls-1{fill:#fff;}</style></defs><path class="cls-1" d="M346.27,295.06a160.86,160.86,0,0,0,72.18-134.12C418.45,72.19,346.25,0,257.51,0S96.56,72.19,96.56,160.94a160.86,160.86,0,0,0,72.18,134.12C70.43,331.34,0,425.71,0,536.47H42.92c0-118.33,96.26-214.59,214.59-214.59s214.58,96.26,214.58,214.59H515C515,425.71,444.59,331.34,346.27,295.06ZM257.51,279a118,118,0,1,1,118-118A118.16,118.16,0,0,1,257.51,279Z"/></svg>